<?xml version="1.0" standalone="no"?>
<!DOCTYPE svg PUBLIC "-//W3C//DTD SVG 20010904//EN"
 "http://www.w3.org/TR/2001/REC-SVG-20010904/DTD/svg10.dtd">
<svg version="1.0" xmlns="http://www.w3.org/2000/svg"
 width="261.000000pt" height="261.000000pt" viewBox="0 0 261.000000 261.000000"
 preserveAspectRatio="xMidYMid meet">
<metadata>
Created by potrace 1.14, written by Peter Selinger 2001-2017
</metadata>
<g transform="translate(0.000000,261.000000) scale(0.100000,-0.100000)"
fill="#000000" stroke="none">
<path d="M1150 2603 c-360 -55 -659 -223 -862 -483 -32 -41 -63 -81 -68 -87
-30 -36 -123 -231 -151 -313 -93 -278 -90 -586 8 -855 38 -105 132 -287 163
-315 3 -3 18 -23 34 -45 48 -66 206 -217 286 -271 171 -117 340 -185 550 -220
58 -10 291 -12 350 -4 144 21 186 32 320 83 227 87 456 272 595 482 48 71 142
254 149 288 2 7 6 19 9 27 12 29 47 173 54 224 14 94 7 355 -11 436 -9 41 -19
84 -21 94 -25 110 -109 290 -192 411 -114 164 -325 344 -501 426 -94 44 -216
85 -314 105 -77 15 -335 27 -398 17z"/>
</g>
</svg>
