<svg width="155" height="29" viewBox="0 0 155 29" fill="none" xmlns="http://www.w3.org/2000/svg">
<path d="M8.096 22.256C6.624 22.256 5.20533 22.0853 3.84 21.744C2.496 21.3813 1.42933 20.9333 0.64 20.4L2.304 16.816C3.09333 17.3067 4.02133 17.712 5.088 18.032C6.176 18.3307 7.24267 18.48 8.288 18.48C9.44 18.48 10.2507 18.3413 10.72 18.064C11.2107 17.7867 11.456 17.4027 11.456 16.912C11.456 16.5067 11.264 16.208 10.88 16.016C10.5173 15.8027 10.0267 15.6427 9.408 15.536C8.78933 15.4293 8.10667 15.3227 7.36 15.216C6.63467 15.1093 5.89867 14.9707 5.152 14.8C4.40533 14.608 3.72267 14.3307 3.104 13.968C2.48533 13.6053 1.984 13.1147 1.6 12.496C1.23733 11.8773 1.056 11.0773 1.056 10.096C1.056 9.008 1.36533 8.048 1.984 7.216C2.624 6.384 3.54133 5.73333 4.736 5.264C5.93067 4.77333 7.36 4.528 9.024 4.528C10.1973 4.528 11.392 4.656 12.608 4.912C13.824 5.168 14.8373 5.54133 15.648 6.032L13.984 9.584C13.152 9.09333 12.3093 8.76267 11.456 8.592C10.624 8.4 9.81333 8.304 9.024 8.304C7.91467 8.304 7.104 8.45333 6.592 8.752C6.08 9.05067 5.824 9.43467 5.824 9.904C5.824 10.3307 6.00533 10.6507 6.368 10.864C6.752 11.0773 7.25333 11.248 7.872 11.376C8.49067 11.504 9.16267 11.6213 9.888 11.728C10.6347 11.8133 11.3813 11.952 12.128 12.144C12.8747 12.336 13.5467 12.6133 14.144 12.976C14.7627 13.3173 15.264 13.7973 15.648 14.416C16.032 15.0133 16.224 15.8027 16.224 16.784C16.224 17.8507 15.904 18.8 15.264 19.632C14.624 20.4427 13.696 21.0827 12.48 21.552C11.2853 22.0213 9.824 22.256 8.096 22.256ZM26.344 22.256C24.3173 22.256 22.7387 21.744 21.608 20.72C20.4773 19.6747 19.912 18.128 19.912 16.08V0.976H24.904V16.016C24.904 16.7413 25.096 17.3067 25.48 17.712C25.864 18.096 26.3867 18.288 27.048 18.288C27.8373 18.288 28.5093 18.0747 29.064 17.648L30.408 21.168C29.896 21.5307 29.2773 21.808 28.552 22C27.848 22.1707 27.112 22.256 26.344 22.256ZM17.256 9.008V5.168H29.192V9.008H17.256ZM43.7703 22V18.64L43.4503 17.904V11.888C43.4503 10.8213 43.1196 9.98933 42.4583 9.392C41.8183 8.79467 40.8263 8.496 39.4823 8.496C38.5649 8.496 37.6583 8.64533 36.7623 8.944C35.8876 9.22133 35.1409 9.60533 34.5223 10.096L32.7303 6.608C33.6689 5.94667 34.7996 5.43467 36.1223 5.072C37.4449 4.70933 38.7889 4.528 40.1543 4.528C42.7783 4.528 44.8156 5.14667 46.2663 6.384C47.7169 7.62133 48.4423 9.552 48.4423 12.176V22H43.7703ZM38.5223 22.256C37.1783 22.256 36.0263 22.032 35.0663 21.584C34.1063 21.1147 33.3703 20.4853 32.8583 19.696C32.3463 18.9067 32.0903 18.0213 32.0903 17.04C32.0903 16.016 32.3356 15.12 32.8263 14.352C33.3383 13.584 34.1383 12.9867 35.2263 12.56C36.3143 12.112 37.7329 11.888 39.4823 11.888H44.0583V14.8H40.0263C38.8529 14.8 38.0423 14.992 37.5943 15.376C37.1676 15.76 36.9543 16.24 36.9543 16.816C36.9543 17.456 37.1996 17.968 37.6903 18.352C38.2023 18.7147 38.8956 18.896 39.7703 18.896C40.6023 18.896 41.3489 18.704 42.0103 18.32C42.6716 17.9147 43.1516 17.328 43.4503 16.56L44.2183 18.864C43.8556 19.9733 43.1943 20.816 42.2343 21.392C41.2743 21.968 40.0369 22.256 38.5223 22.256ZM60.0003 22.256C57.9736 22.256 56.3949 21.744 55.2643 20.72C54.1336 19.6747 53.5683 18.128 53.5683 16.08V0.976H58.5603V16.016C58.5603 16.7413 58.7523 17.3067 59.1363 17.712C59.5203 18.096 60.0429 18.288 60.7043 18.288C61.4936 18.288 62.1656 18.0747 62.7203 17.648L64.0643 21.168C63.5523 21.5307 62.9336 21.808 62.2083 22C61.5043 22.1707 60.7683 22.256 60.0003 22.256ZM50.9123 9.008V5.168H62.8483V9.008H50.9123ZM72.6585 22.256C71.1865 22.256 69.7678 22.0853 68.4025 21.744C67.0585 21.3813 65.9918 20.9333 65.2025 20.4L66.8665 16.816C67.6558 17.3067 68.5838 17.712 69.6505 18.032C70.7385 18.3307 71.8052 18.48 72.8505 18.48C74.0025 18.48 74.8132 18.3413 75.2825 18.064C75.7732 17.7867 76.0185 17.4027 76.0185 16.912C76.0185 16.5067 75.8265 16.208 75.4425 16.016C75.0798 15.8027 74.5892 15.6427 73.9705 15.536C73.3518 15.4293 72.6692 15.3227 71.9225 15.216C71.1972 15.1093 70.4612 14.9707 69.7145 14.8C68.9678 14.608 68.2852 14.3307 67.6665 13.968C67.0478 13.6053 66.5465 13.1147 66.1625 12.496C65.7998 11.8773 65.6185 11.0773 65.6185 10.096C65.6185 9.008 65.9278 8.048 66.5465 7.216C67.1865 6.384 68.1038 5.73333 69.2985 5.264C70.4932 4.77333 71.9225 4.528 73.5865 4.528C74.7598 4.528 75.9545 4.656 77.1705 4.912C78.3865 5.168 79.3998 5.54133 80.2105 6.032L78.5465 9.584C77.7145 9.09333 76.8718 8.76267 76.0185 8.592C75.1865 8.4 74.3758 8.304 73.5865 8.304C72.4772 8.304 71.6665 8.45333 71.1545 8.752C70.6425 9.05067 70.3865 9.43467 70.3865 9.904C70.3865 10.3307 70.5678 10.6507 70.9305 10.864C71.3145 11.0773 71.8158 11.248 72.4345 11.376C73.0532 11.504 73.7252 11.6213 74.4505 11.728C75.1972 11.8133 75.9438 11.952 76.6905 12.144C77.4372 12.336 78.1092 12.6133 78.7065 12.976C79.3252 13.3173 79.8265 13.7973 80.2105 14.416C80.5945 15.0133 80.7865 15.8027 80.7865 16.784C80.7865 17.8507 80.4665 18.8 79.8265 19.632C79.1865 20.4427 78.2585 21.0827 77.0425 21.552C75.8478 22.0213 74.3865 22.256 72.6585 22.256Z" fill="white"/>
<path d="M91.9625 28.464C90.3412 28.464 88.7732 28.2613 87.2585 27.856C85.7652 27.472 84.5172 26.8853 83.5145 26.096L85.4985 22.512C86.2238 23.1093 87.1412 23.5787 88.2505 23.92C89.3812 24.2827 90.4905 24.464 91.5785 24.464C93.3492 24.464 94.6292 24.0693 95.4185 23.28C96.2292 22.4907 96.6345 21.3173 96.6345 19.76V17.168L96.9545 12.848L96.8905 8.496V4.784H101.627V19.12C101.627 22.32 100.795 24.6773 99.1305 26.192C97.4665 27.7067 95.0772 28.464 91.9625 28.464ZM91.1945 21.168C89.5945 21.168 88.1438 20.8267 86.8425 20.144C85.5625 19.44 84.5278 18.4693 83.7385 17.232C82.9705 15.9733 82.5865 14.512 82.5865 12.848C82.5865 11.1627 82.9705 9.70133 83.7385 8.464C84.5278 7.20533 85.5625 6.23467 86.8425 5.552C88.1438 4.86933 89.5945 4.528 91.1945 4.528C92.6452 4.528 93.9252 4.82667 95.0345 5.424C96.1438 6 97.0078 6.90667 97.6265 8.144C98.2452 9.36 98.5545 10.928 98.5545 12.848C98.5545 14.7467 98.2452 16.3147 97.6265 17.552C97.0078 18.768 96.1438 19.6747 95.0345 20.272C93.9252 20.8693 92.6452 21.168 91.1945 21.168ZM92.1865 17.072C93.0612 17.072 93.8398 16.9013 94.5225 16.56C95.2052 16.1973 95.7385 15.696 96.1225 15.056C96.5065 14.416 96.6985 13.68 96.6985 12.848C96.6985 11.9947 96.5065 11.2587 96.1225 10.64C95.7385 10 95.2052 9.50933 94.5225 9.168C93.8398 8.80533 93.0612 8.624 92.1865 8.624C91.3118 8.624 90.5332 8.80533 89.8505 9.168C89.1678 9.50933 88.6238 10 88.2185 10.64C87.8345 11.2587 87.6425 11.9947 87.6425 12.848C87.6425 13.68 87.8345 14.416 88.2185 15.056C88.6238 15.696 89.1678 16.1973 89.8505 16.56C90.5332 16.9013 91.3118 17.072 92.1865 17.072ZM108.449 28.464C107.553 28.464 106.667 28.3253 105.793 28.048C104.918 27.7707 104.203 27.3867 103.649 26.896L105.473 23.344C105.857 23.6853 106.294 23.952 106.785 24.144C107.297 24.336 107.798 24.432 108.289 24.432C108.993 24.432 109.547 24.2613 109.953 23.92C110.379 23.6 110.763 23.056 111.105 22.288L112.001 20.176L112.385 19.632L118.561 4.784H123.361L115.585 23.056C115.03 24.4427 114.39 25.5307 113.665 26.32C112.961 27.1093 112.171 27.664 111.297 27.984C110.443 28.304 109.494 28.464 108.449 28.464ZM111.393 22.672L103.713 4.784H108.865L114.817 19.184L111.393 22.672ZM147.446 4.528C148.811 4.528 150.016 4.80533 151.062 5.36C152.128 5.89333 152.96 6.72533 153.558 7.856C154.176 8.96533 154.486 10.3947 154.486 12.144V22H149.494V12.912C149.494 11.5253 149.206 10.5013 148.63 9.84C148.054 9.17867 147.243 8.848 146.198 8.848C145.472 8.848 144.822 9.01867 144.246 9.36C143.67 9.68 143.222 10.1707 142.902 10.832C142.582 11.4933 142.422 12.336 142.422 13.36V22H137.43V12.912C137.43 11.5253 137.142 10.5013 136.566 9.84C136.011 9.17867 135.211 8.848 134.166 8.848C133.44 8.848 132.79 9.01867 132.214 9.36C131.638 9.68 131.19 10.1707 130.87 10.832C130.55 11.4933 130.39 12.336 130.39 13.36V22H125.398V4.784H130.166V9.488L129.27 8.112C129.867 6.93867 130.71 6.05333 131.798 5.456C132.907 4.83733 134.166 4.528 135.574 4.528C137.152 4.528 138.528 4.93333 139.702 5.744C140.896 6.53333 141.686 7.74933 142.07 9.392L140.31 8.912C140.886 7.568 141.803 6.50133 143.062 5.712C144.342 4.92267 145.803 4.528 147.446 4.528Z" fill="#E1B12C"/>
</svg>
